<svg width="82" height="48" fill="none" xmlns="http://www.w3.org/2000/svg"><g opacity=".8"><path d="M42.04 34.022a21.019 21.019 0 0 1-3.681 4.948c-8.267 8.27-21.677 8.27-29.944 0C.15 30.7.15 17.283 8.415 9.03 16.7.76 30.11.76 38.377 9.048A21.199 21.199 0 0 1 42.997 16l1.679-.686C39.875 3.56 26.464-2.093 14.715 2.71 2.965 7.513-2.685 20.93 2.116 32.686 6.917 44.44 20.328 50.094 32.078 45.29a22.97 22.97 0 0 0 11.587-10.455l-1.624-.813Z" fill="#F59D08"/><path d="m30.796 27.54-1.968 1.137c.704 1.409 2.166 2.492 4.422 2.492 2.31 0 4.025-1.192 4.025-3.377 0-2.022-1.173-2.925-3.23-3.81l-.614-.253c-1.047-.451-1.498-.758-1.498-1.48 0-.596.451-1.048 1.155-1.048.686 0 1.137.307 1.552 1.047l1.895-1.21c-.794-1.408-1.913-1.95-3.447-1.95-2.166 0-3.556 1.39-3.556 3.215 0 1.986 1.155 2.925 2.906 3.665l.614.253c1.119.488 1.769.777 1.769 1.607 0 .687-.632 1.192-1.643 1.192-1.191 0-1.859-.632-2.382-1.48ZM24.046 19.215h-2.419v11.791h2.419V19.215Z" fill="#000"/><path fill-rule="evenodd" clip-rule="evenodd" d="M46.408 19.107h.217l5.396 11.9h-2.544l-.56-1.337h-4.783l-.56 1.336h-2.346l5.18-11.9Zm1.625 8.54-.849-2.04c-.343-.83-.704-2.113-.704-2.113s-.343 1.283-.685 2.113l-.849 2.04h3.087ZM60.143 19.215h-3.248v11.791h2.418v-2.69h.83c3.285 0 5.27-1.716 5.27-4.55 0-2.836-1.985-4.551-5.27-4.551Zm2.78 4.568c0 1.607-.867 2.402-2.834 2.402v.018h-.758v-4.84h.758c1.931 0 2.834.795 2.834 2.42Z" fill="#000"/><path d="m69.583 28.677 1.967-1.138c.524.85 1.192 1.481 2.383 1.481 1.01 0 1.642-.505 1.642-1.192 0-.83-.65-1.12-1.769-1.607l-.613-.253c-1.751-.74-2.906-1.679-2.906-3.665 0-1.824 1.39-3.215 3.555-3.215 1.535 0 2.654.542 3.448 1.95l-1.895 1.21c-.415-.74-.867-1.047-1.552-1.047-.704 0-1.156.452-1.156 1.047 0 .723.452 1.03 1.499 1.481l.613.253c2.058.885 3.23 1.788 3.23 3.81 0 2.185-1.714 3.377-4.024 3.377-2.256 0-3.718-1.083-4.422-2.492Z" fill="#000"/><path fill-rule="evenodd" clip-rule="evenodd" d="M80.34 21.418h.253l-.343-.452a.542.542 0 0 0 .343-.523c0-.343-.199-.614-.686-.614h-.415v1.607h.216v-.397h.199a.35.35 0 0 0 .072-.01c.023-.004.045-.009.072-.009l.29.398Zm.036-.975c0 .252-.126.415-.487.415v.018h-.18v-.867h.18c.379 0 .487.18.487.434Z" fill="#000"/><path fill-rule="evenodd" clip-rule="evenodd" d="M79.98 19.25c-.777 0-1.409.597-1.409 1.391 0 .795.632 1.373 1.408 1.39.776 0 1.426-.595 1.426-1.39 0-.794-.65-1.39-1.426-1.39Zm-.019.181c.704 0 1.21.488 1.21 1.21 0 .705-.506 1.192-1.21 1.192-.686 0-1.173-.487-1.173-1.192 0-.722.487-1.21 1.173-1.21Z" fill="#000"/></g></svg>