<svg width="145" height="34" fill="none" xmlns="http://www.w3.org/2000/svg"><path d="M0 .5h11.901c2.164 0 4.064.388 5.701 1.165 1.665.749 2.955 1.872 3.87 3.37.943 1.47 1.415 3.26 1.415 5.368 0 2.08-.472 3.87-1.415 5.368-.943 1.47-2.247 2.594-3.912 3.37-1.636.75-3.523 1.124-5.659 1.124H6.45v11.236H0V.499Zm11.943 14.148c.888 0 1.664-.18 2.33-.541.694-.361 1.22-.86 1.581-1.498.389-.639.583-1.374.583-2.206 0-.86-.194-1.609-.583-2.247-.36-.638-.887-1.137-1.58-1.498-.667-.36-1.443-.541-2.331-.541H6.45v8.53h5.493ZM25.734 0h6.242v31.5h-6.242V0ZM41.935 32c-1.637 0-3.052-.264-4.245-.79-1.192-.528-2.108-1.277-2.746-2.248-.638-.998-.957-2.177-.957-3.537 0-1.942.666-3.523 1.997-4.744 1.36-1.248 3.385-2.094 6.076-2.538l6.949-1.123v4.577l-5.826 1.04c-.915.167-1.609.458-2.08.874-.444.416-.666.985-.666 1.706 0 .694.25 1.235.749 1.623.527.388 1.193.583 1.997.583.999 0 1.887-.222 2.663-.666.805-.444 1.415-1.04 1.831-1.79a5.028 5.028 0 0 0 .666-2.538v-4.41c0-1.194-.374-2.123-1.123-2.789-.722-.693-1.748-1.04-3.08-1.04h-7.656V8.78h8.072c3.108 0 5.549.805 7.324 2.414 1.803 1.581 2.705 3.745 2.705 6.491v13.816H48.76v-3.662l1.415-.25c-.998 1.526-2.164 2.65-3.495 3.37-1.332.694-2.913 1.041-4.744 1.041ZM67.652 31.958c-2.497.084-4.689-.43-6.575-1.54-1.886-1.109-3.19-2.649-3.912-4.618l4.495-2.33c.638 1.22 1.456 2.15 2.455 2.788a5.995 5.995 0 0 0 3.37.915c.86-.028 1.526-.222 1.998-.583.471-.388.693-.901.665-1.54a1.71 1.71 0 0 0-.624-1.248c-.388-.333-.957-.568-1.706-.707l-3.87-.75c-1.858-.443-3.315-1.261-4.37-2.454-1.053-1.193-1.608-2.608-1.664-4.245-.027-1.387.292-2.621.957-3.703.694-1.11 1.679-1.984 2.955-2.622 1.276-.638 2.76-.985 4.452-1.04 2.22-.083 4.176.374 5.868 1.373 1.72.971 2.968 2.386 3.745 4.245l-4.536 2.33c-.388-.916-1.026-1.637-1.914-2.164-.888-.555-1.886-.818-2.996-.79-.804.027-1.429.221-1.873.582-.443.333-.652.79-.624 1.373.028.472.236.874.624 1.207.416.305 1.055.569 1.915.79l3.62.75c1.914.499 3.384 1.317 4.41 2.455 1.055 1.137 1.61 2.524 1.665 4.161.028 1.415-.305 2.663-.998 3.745-.666 1.082-1.651 1.942-2.955 2.58-1.304.638-2.83.985-4.577 1.04ZM80.229 14.19h-2.53V8.78h2.53V3.62h6.242v5.16h5.326v5.41h-5.326V31.5h-6.242V14.19ZM99.708 32c-1.637 0-3.052-.264-4.245-.79-1.193-.528-2.108-1.277-2.746-2.248-.638-.998-.957-2.177-.957-3.537 0-1.942.666-3.523 1.997-4.744 1.36-1.248 3.385-2.094 6.076-2.538l6.949-1.123v4.577l-5.826 1.04c-.915.167-1.609.458-2.08.874-.444.416-.666.985-.666 1.706 0 .694.25 1.235.749 1.623.527.388 1.193.583 1.997.583.999 0 1.887-.222 2.663-.666.805-.444 1.415-1.04 1.831-1.79a5.027 5.027 0 0 0 .666-2.538v-4.41c0-1.194-.374-2.123-1.123-2.789-.722-.693-1.748-1.04-3.08-1.04h-7.656V8.78h8.072c3.107 0 5.549.805 7.324 2.414 1.803 1.581 2.705 3.745 2.705 6.491v13.816h-5.826v-3.662l1.415-.25c-.999 1.526-2.164 2.65-3.495 3.37-1.332.694-2.913 1.041-4.744 1.041ZM132.962 14.19h-2.53V8.78h2.53V3.62h6.242v5.16h5.327v5.41h-5.327V31.5h-6.242V14.19ZM120.831 22.429v-4.41c0-1.194.374-2.123 1.123-2.789.722-.694 1.748-1.04 3.08-1.04h3.112V8.78h-3.528c-3.107 0-5.549.805-7.324 2.414-1.803 1.58-2.705 3.745-2.705 6.491v13.816h6.242v-9.072Z" fill="#1E1E2B"/><path d="M0 .5h11.901c2.164 0 4.064.388 5.701 1.164 1.665.75 2.954 1.873 3.87 3.371.943 1.47 1.415 3.26 1.415 5.368 0 2.08-.472 3.87-1.415 5.368-.943 1.47-2.247 2.594-3.912 3.37-1.636.75-3.523 1.124-5.659 1.124H6.45v11.236H0V.499Zm11.943 14.148c.888 0 1.664-.18 2.33-.541.694-.361 1.22-.86 1.581-1.498.389-.639.583-1.374.583-2.206 0-.86-.194-1.609-.583-2.247-.36-.638-.887-1.137-1.58-1.498-.667-.36-1.443-.541-2.331-.541H6.45v8.53h5.493ZM25.734 0h6.242v31.5h-6.242V0ZM41.935 32c-1.637 0-3.052-.264-4.245-.79-1.192-.528-2.108-1.277-2.746-2.248-.638-.998-.957-2.177-.957-3.537 0-1.942.666-3.523 1.997-4.744 1.36-1.248 3.385-2.094 6.076-2.538l6.949-1.123v4.577l-5.826 1.04c-.915.167-1.609.458-2.08.874-.444.416-.666.985-.666 1.706 0 .694.25 1.235.749 1.623.527.388 1.193.583 1.997.583.999 0 1.887-.222 2.663-.666.805-.444 1.415-1.04 1.831-1.79a5.03 5.03 0 0 0 .666-2.538v-4.41c0-1.194-.374-2.123-1.123-2.789-.722-.693-1.748-1.04-3.08-1.04h-7.656V8.78h8.072c3.108 0 5.549.805 7.324 2.414 1.803 1.581 2.705 3.745 2.705 6.491v13.816h-5.826v-3.662l1.415-.25c-.999 1.526-2.164 2.65-3.495 3.37-1.332.694-2.913 1.041-4.744 1.041ZM67.652 31.958c-2.497.084-4.689-.43-6.575-1.54-1.886-1.109-3.19-2.649-3.912-4.618l4.495-2.33c.638 1.22 1.456 2.15 2.455 2.787a5.993 5.993 0 0 0 3.37.916c.86-.028 1.526-.222 1.998-.583.471-.388.693-.901.665-1.54a1.71 1.71 0 0 0-.624-1.248c-.388-.333-.957-.568-1.706-.707l-3.87-.75c-1.858-.443-3.315-1.261-4.37-2.454-1.053-1.193-1.608-2.608-1.664-4.245-.027-1.387.292-2.621.957-3.703.694-1.11 1.679-1.984 2.955-2.622 1.276-.638 2.76-.985 4.452-1.04 2.22-.083 4.176.374 5.868 1.373 1.72.971 2.968 2.386 3.745 4.245l-4.536 2.33c-.388-.916-1.026-1.637-1.914-2.164-.888-.555-1.886-.818-2.996-.79-.805.027-1.429.221-1.873.582-.444.333-.652.79-.624 1.373.028.472.236.874.624 1.207.416.305 1.054.569 1.915.79l3.62.75c1.914.499 3.384 1.317 4.41 2.455 1.055 1.137 1.61 2.524 1.665 4.16.028 1.416-.305 2.664-.999 3.746-.665 1.082-1.65 1.942-2.954 2.58-1.304.638-2.83.985-4.577 1.04ZM80.229 14.19h-2.53V8.78h2.53V3.62h6.242v5.16h5.326v5.41h-5.326V31.5h-6.242V14.19ZM99.708 32c-1.637 0-3.052-.264-4.245-.79-1.193-.528-2.108-1.277-2.746-2.248-.638-.998-.957-2.177-.957-3.537 0-1.942.665-3.523 1.997-4.744 1.36-1.248 3.384-2.094 6.075-2.538l6.95-1.123v4.577l-5.826 1.04c-.915.167-1.609.458-2.08.874-.445.416-.666.985-.666 1.706 0 .694.25 1.235.749 1.623.527.388 1.193.583 1.997.583.999 0 1.886-.222 2.663-.666.805-.444 1.415-1.04 1.831-1.79a5.027 5.027 0 0 0 .666-2.538v-4.41c0-1.194-.375-2.123-1.124-2.789-.721-.693-1.747-1.04-3.079-1.04h-7.657V8.78h8.073c3.107 0 5.549.805 7.324 2.414 1.803 1.581 2.705 3.745 2.705 6.491v13.816h-5.826v-3.662l1.415-.25c-.999 1.526-2.164 2.65-3.496 3.37-1.331.694-2.912 1.041-4.743 1.041ZM132.962 14.19h-2.53V8.78h2.53V3.62h6.242v5.16h5.326v5.41h-5.326V31.5h-6.242V14.19ZM120.831 22.429v-4.41c0-1.194.374-2.123 1.123-2.789.722-.694 1.748-1.04 3.08-1.04h3.112V8.78h-3.528c-3.108 0-5.549.805-7.324 2.414-1.803 1.58-2.705 3.745-2.705 6.491v13.816h6.242v-9.072Z" fill="#F9F8F4"/><path d="M99.708 32c-1.637 0-3.052-.263-4.245-.79s-2.108-1.277-2.746-2.247c-.638-1-.957-2.178-.957-3.538 0-1.941.666-3.523 1.997-4.743 1.36-1.249 3.385-2.095 6.076-2.539l6.949-1.123v4.577l-5.826 1.04c-.915.167-1.609.458-2.08.874-.444.416-.666.985-.666 1.707 0 .693.25 1.234.749 1.622.527.389 1.193.583 1.997.583.999 0 1.887-.222 2.663-.666.805-.444 1.415-1.04 1.831-1.79a5.027 5.027 0 0 0 .666-2.538v-4.41c0-1.193-.374-2.123-1.123-2.788-.722-.694-1.748-1.04-3.08-1.04h-7.656V8.78h8.072c3.107 0 5.549.804 7.324 2.413 1.803 1.581 2.705 3.745 2.705 6.492V31.5h-5.826v-3.662l1.415-.25c-.999 1.526-2.164 2.65-3.495 3.371-1.332.694-2.913 1.04-4.744 1.04ZM132.962 14.19h-2.53V8.78h2.53V3.62h6.242v5.16h5.327v5.41h-5.327V31.5h-6.242V14.19ZM120.831 22.43v-4.412c0-1.192.374-2.122 1.123-2.788.722-.693 1.748-1.04 3.08-1.04h3.112V8.78h-3.528c-3.107 0-5.549.805-7.324 2.414-1.803 1.581-2.705 3.745-2.705 6.492V31.5h6.242v-9.072Z" fill="#DC3C3C"/></svg>