<svg width="107" height="16" fill="none" xmlns="http://www.w3.org/2000/svg"><path d="M3.839 7.818H2.423a.483.483 0 0 1-.478-.493V1.979c0-.274.212-.493.478-.493h1.133c2.3 0 4.247.803 4.247 3.193 0 2.573-1.787 3.139-3.964 3.139ZM4.157.884H.883a.483.483 0 0 0-.478.493v13.502c0 .438.337.784.761.784a.767.767 0 0 0 .761-.784V9.022c0-.128.053-.256.142-.347a.476.476 0 0 1 .336-.146h2.973c2.69 0 4.036-1.678 4.036-3.74C9.43 2.034 7.113.884 4.157.884ZM13.874 8c0 4.707 2.672 7.061 5.114 7.061 2.443 0 5.115-2.354 5.115-7.06 0-4.708-2.672-7.062-5.115-7.062-2.442 0-5.114 2.354-5.114 7.061ZM25.89 8c0 4.324-3.009 7.663-6.903 7.663-3.893 0-6.902-3.339-6.902-7.663S15.095.337 18.988.337c3.894 0 6.903 3.339 6.903 7.663Zm12.902 6.404h-6a.562.562 0 0 1-.372-.146.506.506 0 0 1-.141-.346V1.14c0-.438-.354-.785-.814-.785-.443 0-.815.347-.815.785v13.483c0 .274.23.493.514.493h7.61a.364.364 0 0 0 .372-.365c.017-.2-.142-.347-.354-.347ZM50.19.392a.295.295 0 0 0-.407.073l-4.265 5.802a.538.538 0 0 1-.354.164c-.16 0-.3-.073-.407-.2L40.474.628a.729.729 0 0 0-1.009-.146.704.704 0 0 0-.16.985l4.567 6.13c.035.055.053.128.07.201v6.55c0 .438.355.785.797.785a.786.786 0 0 0 .797-.784V7.69c0-.11.035-.2.106-.274L50.296.811c.054-.146.018-.328-.106-.42Zm12.495.492H51.73a.376.376 0 0 0-.372.365c0 .2.16.365.372.365h3.894c.283 0 .513.219.513.493v12.772c0 .438.354.784.796.784a.786.786 0 0 0 .797-.784V2.107c0-.274.23-.493.513-.493h4.442a.376.376 0 0 0 .372-.365c0-.2-.16-.365-.372-.365Zm13.274 13.52h-7.593a.502.502 0 0 1-.513-.492V8.693c0-.273.23-.492.513-.492h6.956c.212 0 .371-.164.371-.347 0-.2-.159-.347-.371-.347h-6.956a.502.502 0 0 1-.513-.492V2.052c0-.274.23-.493.513-.493h7.31c.194 0 .371-.164.371-.346 0-.201-.159-.347-.371-.347h-8.938a.502.502 0 0 0-.513.493v13.264c0 .274.23.493.513.493h9.203c.213 0 .372-.164.372-.347.018-.2-.142-.365-.354-.365Zm14.955-2.59a.502.502 0 0 0-.655.237c-.885 2.007-2.442 2.882-4.548 2.882-2.443 0-5.434-1.988-5.434-6.951 0-4.927 2.673-7.061 5.434-7.061 2.159 0 3.822 1.204 4.477 2.956.106.219.372.328.602.219a.43.43 0 0 0 .212-.584C89.994 1.377 88.064.337 85.711.337c-4.195 0-7.257 3.375-7.257 7.663s3.062 7.663 7.257 7.663c2.353 0 4.495-1.113 5.45-3.193a.507.507 0 0 0-.247-.657ZM105.798.336a.786.786 0 0 0-.796.784V6.76c0 .274-.23.493-.496.493h-7.522a.487.487 0 0 1-.495-.493V1.121a.786.786 0 0 0-.797-.784.786.786 0 0 0-.796.784V14.35c0 .437.354.784.796.784a.786.786 0 0 0 .797-.784V8.456c0-.273.23-.492.495-.492h7.522c.283 0 .496.219.496.492v5.894c0 .437.354.784.796.784a.786.786 0 0 0 .797-.784V1.12a.786.786 0 0 0-.797-.784Z" fill="#005D83"/></svg>