<svg aria-hidden="true" style="width:0;height:0;position:absolute;overflow:hidden" xmlns="http://www.w3.org/2000/svg"><defs><symbol id="hamburger" viewBox="0 0 32 32"><path d="M2.667 8c0-.736.597-1.333 1.333-1.333h24a1.333 1.333 0 0 1 0 2.666H4A1.333 1.333 0 0 1 2.667 8zM2.667 16c0-.736.597-1.333 1.333-1.333h24a1.333 1.333 0 0 1 0 2.666H4A1.333 1.333 0 0 1 2.667 16zM4 22.667a1.333 1.333 0 0 0 0 2.666h24a1.333 1.333 0 0 0 0-2.666H4z"/></symbol><symbol id="arrowRight" viewBox="0 0 32 32"><path d="M19.609 7.057a1.333 1.333 0 1 0-1.886 1.886l5.724 5.724H5.333a1.333 1.333 0 0 0 0 2.666h18.114l-5.724 5.724a1.333 1.333 0 1 0 1.886 1.886l8-8a1.333 1.333 0 0 0 0-1.886l-8-8z"/></symbol><symbol id="zamok" viewBox="0 0 25 32"><path d="M20.063 14.222V7.619a7.62 7.62 0 0 0-15.239 0v6.603a3.047 3.047 0 0 0-3.047 3.047v11.683A3.048 3.048 0 0 0 4.825 32h15.238a3.048 3.048 0 0 0 3.048-3.048V17.269a3.048 3.048 0 0 0-3.048-3.048zM7.873 7.619a4.572 4.572 0 0 1 9.142 0v6.603H7.872V7.619z"/></symbol><symbol id="instagram" viewBox="0 0 32 32"><path d="M1.333 16c0-6.914 0-10.371 2.148-12.519S9.086 1.333 16 1.333s10.371 0 12.519 2.148S30.667 9.086 30.667 16s0 10.371-2.148 12.519S22.914 30.667 16 30.667s-10.371 0-12.519-2.148S1.333 22.914 1.333 16zM16 8a8 8 0 1 0 0 16 8 8 0 0 0 0-16zm0 13c-2.756 0-5-2.244-5-5 0-2.758 2.244-5 5-5s5 2.242 5 5c0 2.756-2.244 5-5 5zM26.667 7.333a2 2 0 1 1-3.999.001 2 2 0 0 1 3.999-.001z"/></symbol><symbol id="telegram" viewBox="0 0 32 32"><path d="M3.35 14.332c7.874-3.387 13.125-5.62 15.752-6.699 7.501-3.08 9.06-3.615 10.076-3.633.223-.004.723.051 1.047.31.273.219.349.515.384.722s.081.68.045 1.05c-.406 4.217-2.165 14.449-3.06 19.172-.379 1.998-1.124 2.668-1.846 2.734-1.569.143-2.76-1.023-4.279-2.007-2.377-1.538-3.72-2.496-6.028-3.997-2.667-1.735-.938-2.689.582-4.247.398-.408 7.309-6.614 7.443-7.177.017-.07.032-.333-.126-.471s-.391-.091-.559-.053c-.238.053-4.036 2.532-11.393 7.435-1.078.731-2.054 1.087-2.929 1.068-.964-.021-2.82-.538-4.199-.981-1.692-.543-3.036-.83-2.919-1.752.061-.48.731-.971 2.009-1.473z"/></symbol><symbol id="youtube" viewBox="0 0 32 32"><path d="M28.502 5.469C26.008 4.8 16 4.8 16 4.8s-10.007 0-12.502.669A4.007 4.007 0 0 0 .669 8.298C0 10.793 0 16 0 16s0 5.208.669 7.702a4.007 4.007 0 0 0 2.829 2.829C5.993 27.2 16 27.2 16 27.2s10.007 0 12.502-.669a4.007 4.007 0 0 0 2.829-2.829C32 21.208 32 16 32 16s-.003-5.208-.669-7.702a4.007 4.007 0 0 0-2.829-2.829zM21.11 16l-8.313 4.799V11.2L21.11 16z"/></symbol><symbol id="facebook" viewBox="0 0 32 32"><path d="M32 16c0-8.837-7.163-16-16-16S0 7.163 0 16c0 7.986 5.851 14.605 13.5 15.806V20.625H9.437V16H13.5v-3.525c0-4.01 2.389-6.225 6.043-6.225 1.75 0 3.582.313 3.582.313v3.938h-2.017c-1.988 0-2.608 1.233-2.608 2.5v3h4.438l-.709 4.625h-3.728v11.181c7.649-1.2 13.5-7.82 13.5-15.806z"/></symbol><symbol id="angleArrow" viewBox="0 0 30 32"><path d="M19.711 5.073a1.255 1.255 0 0 0-1.775 1.775l4.132 4.132H10.039a6.274 6.274 0 0 0-6.274 6.275v8.784a1.255 1.255 0 0 0 2.51 0v-8.784a3.765 3.765 0 0 1 3.765-3.765h12.029l-4.132 4.132a1.255 1.255 0 0 0 1.775 1.775l6.274-6.274c.49-.49.49-1.285 0-1.775l-6.274-6.275z"/></symbol></defs></svg>