<svg width="90" height="22" viewBox="0 0 90 22" fill="none" xmlns="http://www.w3.org/2000/svg">
<path d="M0 1.06583H7.41092C8.75836 1.06583 9.94169 1.30768 10.9609 1.79138C11.9974 2.2578 12.8007 2.95743 13.3708 3.89027C13.9581 4.80584 14.2518 5.92007 14.2518 7.23296C14.2518 8.52858 13.9581 9.64281 13.3708 10.5756C12.7834 11.4912 11.9715 12.1909 10.935 12.6745C9.91578 13.141 8.74109 13.3742 7.41092 13.3742H4.01641V20.3705H0V1.06583ZM7.43683 9.87602C7.98963 9.87602 8.47333 9.76373 8.88792 9.53916C9.3198 9.31458 9.64802 9.00363 9.87259 8.60631C10.1144 8.20899 10.2354 7.75121 10.2354 7.23296C10.2354 6.69744 10.1144 6.23102 9.87259 5.8337C9.64802 5.43637 9.3198 5.12543 8.88792 4.90085C8.47333 4.67628 7.98963 4.56399 7.43683 4.56399H4.01641V9.87602H7.43683Z" fill="#1E1E2B"/>
<path d="M16.0245 0.754883H19.9114V20.3705H16.0245V0.754883Z" fill="#1E1E2B"/>
<path d="M26.1131 20.6815C25.0939 20.6815 24.2128 20.5173 23.47 20.1891C22.7272 19.8609 22.1571 19.3945 21.7598 18.7899C21.3625 18.168 21.1638 17.4338 21.1638 16.5873C21.1638 15.3781 21.5784 14.3934 22.4076 13.6333C23.2541 12.8559 24.5152 12.329 26.1908 12.0527L30.5182 11.353V14.2034L26.8905 14.8512C26.3204 14.9548 25.8885 15.1362 25.5948 15.3953C25.3184 15.6545 25.1802 16.0086 25.1802 16.4577C25.1802 16.8896 25.3357 17.2265 25.6467 17.4683C25.9749 17.7102 26.3895 17.8311 26.8905 17.8311C27.5123 17.8311 28.0651 17.6929 28.5488 17.4165C29.0498 17.1401 29.4299 16.7687 29.689 16.3023C29.9654 15.8186 30.1036 15.2917 30.1036 14.7216V11.9749C30.1036 11.2321 29.8704 10.6534 29.4039 10.2388C28.9548 9.80692 28.3156 9.59098 27.4864 9.59098H22.7186V6.22238H27.7456C29.6803 6.22238 31.2005 6.72335 32.3061 7.72529C33.429 8.70996 33.9904 10.0574 33.9904 11.7676V20.3705H30.3627V18.0902L31.2437 17.9347C30.6218 18.8849 29.8963 19.5845 29.0671 20.0336C28.2379 20.4655 27.2532 20.6815 26.1131 20.6815Z" fill="#1E1E2B"/>
<path d="M42.1271 20.6555C40.5724 20.7074 39.2076 20.3878 38.033 19.6968C36.8583 19.0058 36.0463 18.047 35.5972 16.8205L38.3957 15.3694C38.793 16.1295 39.3027 16.7082 39.9245 17.1056C40.5637 17.5029 41.2634 17.6929 42.0234 17.6756C42.559 17.6583 42.9736 17.5374 43.2672 17.3129C43.5609 17.071 43.6991 16.7514 43.6818 16.3541C43.6646 16.0431 43.535 15.784 43.2931 15.5767C43.0513 15.3694 42.6972 15.2226 42.2307 15.1362L39.8209 14.6698C38.6635 14.3934 37.7566 13.8838 37.1001 13.141C36.4437 12.3981 36.0982 11.5171 36.0636 10.4979C36.0463 9.63417 36.245 8.86544 36.6596 8.19172C37.0915 7.50072 37.7047 6.95656 38.4994 6.55924C39.294 6.16192 40.2182 5.94598 41.272 5.91143C42.654 5.85961 43.8719 6.14464 44.9256 6.76654C45.9967 7.37116 46.774 8.25218 47.2577 9.4096L44.4333 10.8607C44.1914 10.2906 43.7941 9.84147 43.2413 9.51324C42.6885 9.16775 42.0666 9.00364 41.3756 9.02091C40.8747 9.03819 40.486 9.15911 40.2096 9.38368C39.9332 9.59098 39.8036 9.87602 39.8209 10.2388C39.8382 10.5325 39.9677 10.7829 40.2096 10.9902C40.4687 11.1803 40.866 11.3444 41.4016 11.4826L43.6559 11.949C44.8479 12.2599 45.7635 12.7696 46.4026 13.4778C47.0591 14.1861 47.4046 15.0498 47.4391 16.0691C47.4564 16.9501 47.2491 17.7274 46.8172 18.4012C46.4026 19.0749 45.7894 19.6104 44.9774 20.0077C44.1655 20.4051 43.2154 20.621 42.1271 20.6555Z" fill="#1E1E2B"/>
<path d="M49.959 9.59098H48.3836V6.22238H49.959V3.00925H53.8459V6.22238H57.1627V9.59098H53.8459V20.3705H49.959V9.59098Z" fill="#1E1E2B"/>
<path d="M62.0886 20.6815C61.0693 20.6815 60.1883 20.5173 59.4455 20.1891C58.7027 19.8609 58.1326 19.3945 57.7353 18.7899C57.338 18.168 57.1393 17.4338 57.1393 16.5873C57.1393 15.3781 57.5539 14.3934 58.3831 13.6333C59.2296 12.8559 60.4906 12.329 62.1663 12.0527L66.4936 11.353V14.2034L62.8659 14.8512C62.2958 14.9548 61.864 15.1362 61.5703 15.3953C61.2939 15.6545 61.1557 16.0086 61.1557 16.4577C61.1557 16.8896 61.3112 17.2265 61.6221 17.4683C61.9504 17.7102 62.3649 17.8311 62.8659 17.8311C63.4878 17.8311 64.0406 17.6929 64.5243 17.4165C65.0253 17.1401 65.4053 16.7687 65.6645 16.3023C65.9408 15.8186 66.079 15.2917 66.079 14.7216V11.9749C66.079 11.2321 65.8458 10.6534 65.3794 10.2388C64.9303 9.80692 64.2911 9.59098 63.4619 9.59098H58.694V6.22238H63.721C65.6558 6.22238 67.176 6.72335 68.2816 7.72529C69.4045 8.70996 69.9659 10.0574 69.9659 11.7676V20.3705H66.3382V18.0902L67.2192 17.9347C66.5973 18.8849 65.8717 19.5845 65.0426 20.0336C64.2134 20.4655 63.2287 20.6815 62.0886 20.6815Z" fill="#1E1E2B"/>
<path d="M82.7964 9.59098H81.2209V6.22238H82.7964V3.00925H86.6832V6.22238H90V9.59098H86.6832V20.3705H82.7964V9.59098Z" fill="#1E1E2B"/>
<path d="M75.2421 14.7216V11.9748C75.2421 11.232 75.4753 10.6533 75.9417 10.2387C76.3908 9.80685 77.03 9.59091 77.8592 9.59091H79.7974V6.22231H77.6001C75.6653 6.22231 74.1451 6.72328 73.0395 7.72523C71.9166 8.70989 71.3552 10.0573 71.3552 11.7675V20.3704H75.2421V14.7216Z" fill="#1E1E2B"/>
<path d="M0 1.06583H7.41091C8.75835 1.06583 9.94168 1.30768 10.9609 1.79137C11.9974 2.25779 12.8007 2.95743 13.3707 3.89027C13.9581 4.80584 14.2518 5.92007 14.2518 7.23295C14.2518 8.52857 13.9581 9.6428 13.3707 10.5756C12.7834 11.4912 11.9715 12.1908 10.935 12.6745C9.91577 13.141 8.74108 13.3742 7.41091 13.3742H4.0164V20.3705H0V1.06583ZM7.43683 9.87601C7.98962 9.87601 8.47332 9.76372 8.88791 9.53915C9.31978 9.31457 9.64801 9.00363 9.87258 8.6063C10.1144 8.20898 10.2354 7.7512 10.2354 7.23295C10.2354 6.69743 10.1144 6.23101 9.87258 5.83369C9.64801 5.43637 9.31978 5.12542 8.88791 4.90085C8.47332 4.67628 7.98962 4.56399 7.43683 4.56399H4.0164V9.87601H7.43683Z" fill="#1E1E2B"/>
<path d="M16.0245 0.754883H19.9114V20.3705H16.0245V0.754883Z" fill="#1E1E2B"/>
<path d="M26.1131 20.6814C25.0938 20.6814 24.2128 20.5173 23.47 20.1891C22.7272 19.8609 22.1571 19.3945 21.7598 18.7898C21.3625 18.1679 21.1638 17.4338 21.1638 16.5873C21.1638 15.378 21.5784 14.3934 22.4076 13.6333C23.2541 12.8559 24.5151 12.329 26.1908 12.0526L30.5181 11.353V14.2034L26.8904 14.8512C26.3204 14.9548 25.8885 15.1362 25.5948 15.3953C25.3184 15.6544 25.1802 16.0086 25.1802 16.4577C25.1802 16.8896 25.3357 17.2265 25.6466 17.4683C25.9749 17.7102 26.3894 17.8311 26.8904 17.8311C27.5123 17.8311 28.0651 17.6929 28.5488 17.4165C29.0498 17.1401 29.4298 16.7687 29.6889 16.3023C29.9653 15.8186 30.1035 15.2917 30.1035 14.7216V11.9749C30.1035 11.2321 29.8703 10.6534 29.4039 10.2388C28.9548 9.80691 28.3156 9.59097 27.4864 9.59097H22.7185V6.22237H27.7455C29.6803 6.22237 31.2005 6.72335 32.3061 7.72529C33.429 8.70995 33.9904 10.0574 33.9904 11.7676V20.3705H30.3627V18.0902L31.2437 17.9347C30.6218 18.8848 29.8962 19.5845 29.0671 20.0336C28.2379 20.4655 27.2532 20.6814 26.1131 20.6814Z" fill="#1E1E2B"/>
<path d="M42.127 20.6555C40.5723 20.7073 39.2076 20.3878 38.0329 19.6968C36.8582 19.0058 36.0463 18.047 35.5971 16.8205L38.3957 15.3694C38.793 16.1295 39.3026 16.7082 39.9245 17.1055C40.5637 17.5029 41.2633 17.6929 42.0234 17.6756C42.5589 17.6583 42.9735 17.5374 43.2672 17.3128C43.5609 17.071 43.6991 16.7514 43.6818 16.3541C43.6645 16.0431 43.5349 15.784 43.2931 15.5767C43.0512 15.3694 42.6971 15.2226 42.2307 15.1362L39.8209 14.6698C38.6634 14.3934 37.7565 13.8838 37.1001 13.141C36.4436 12.3981 36.0981 11.5171 36.0636 10.4979C36.0463 9.63416 36.245 8.86543 36.6596 8.19171C37.0914 7.50071 37.7047 6.95656 38.4993 6.55923C39.294 6.16191 40.2182 5.94598 41.2719 5.91143C42.6539 5.8596 43.8718 6.14464 44.9256 6.76653C45.9966 7.37115 46.774 8.25217 47.2577 9.40959L44.4332 10.8607C44.1914 10.2906 43.7941 9.84146 43.2413 9.51323C42.6885 9.16774 42.0666 9.00363 41.3756 9.0209C40.8746 9.03818 40.4859 9.1591 40.2095 9.38367C39.9331 9.59097 39.8036 9.87601 39.8209 10.2388C39.8381 10.5325 39.9677 10.7829 40.2095 10.9902C40.4687 11.1803 40.866 11.3444 41.4015 11.4826L43.6559 11.949C44.8478 12.2599 45.7634 12.7695 46.4026 13.4778C47.059 14.1861 47.4045 15.0498 47.4391 16.069C47.4563 16.9501 47.249 17.7274 46.8172 18.4011C46.4026 19.0749 45.7893 19.6104 44.9774 20.0077C44.1655 20.405 43.2154 20.621 42.127 20.6555Z" fill="#1E1E2B"/>
<path d="M49.959 9.59097H48.3835V6.22237H49.959V3.00925H53.8458V6.22237H57.1626V9.59097H53.8458V20.3705H49.959V9.59097Z" fill="#1E1E2B"/>
<path d="M62.0885 20.6814C61.0693 20.6814 60.1882 20.5173 59.4454 20.1891C58.7026 19.8609 58.1325 19.3945 57.7352 18.7898C57.3379 18.1679 57.1392 17.4338 57.1392 16.5873C57.1392 15.378 57.5538 14.3934 58.383 13.6333C59.2295 12.8559 60.4906 12.329 62.1662 12.0526L66.4936 11.353V14.2034L62.8658 14.8512C62.2958 14.9548 61.8639 15.1362 61.5702 15.3953C61.2938 15.6544 61.1556 16.0086 61.1556 16.4577C61.1556 16.8896 61.3111 17.2265 61.6221 17.4683C61.9503 17.7102 62.3649 17.8311 62.8658 17.8311C63.4877 17.8311 64.0405 17.6929 64.5242 17.4165C65.0252 17.1401 65.4053 16.7687 65.6644 16.3023C65.9408 15.8186 66.079 15.2917 66.079 14.7216V11.9749C66.079 11.2321 65.8458 10.6534 65.3793 10.2388C64.9302 9.80691 64.291 9.59097 63.4618 9.59097H58.694V6.22237H63.7209C65.6557 6.22237 67.1759 6.72335 68.2815 7.72529C69.4044 8.70995 69.9658 10.0574 69.9658 11.7676V20.3705H66.3381V18.0902L67.2191 17.9347C66.5972 18.8848 65.8717 19.5845 65.0425 20.0336C64.2133 20.4655 63.2286 20.6814 62.0885 20.6814Z" fill="#1E1E2B"/>
<path d="M82.7963 9.59097H81.2208V6.22237H82.7963V3.00925H86.6831V6.22237H89.9999V9.59097H86.6831V20.3705H82.7963V9.59097Z" fill="#1E1E2B"/>
<path d="M75.242 14.7215V11.9748C75.242 11.232 75.4752 10.6533 75.9416 10.2387C76.3907 9.80684 77.0299 9.59091 77.8591 9.59091H79.7973V6.22231H77.6C75.6652 6.22231 74.145 6.72328 73.0394 7.72522C71.9165 8.70989 71.3551 10.0573 71.3551 11.7675V20.3704H75.242V14.7215Z" fill="#1E1E2B"/>
<path d="M62.0889 20.6815C61.0697 20.6815 60.1887 20.5173 59.4458 20.1891C58.703 19.8609 58.133 19.3945 57.7356 18.7899C57.3383 18.168 57.1396 17.4338 57.1396 16.5873C57.1396 15.3781 57.5542 14.3934 58.3834 13.6333C59.2299 12.8559 60.491 12.3291 62.1666 12.0527L66.494 11.353V14.2034L62.8663 14.8512C62.2962 14.9548 61.8643 15.1362 61.5706 15.3953C61.2942 15.6545 61.156 16.0086 61.156 16.4578C61.156 16.8896 61.3115 17.2265 61.6225 17.4683C61.9507 17.7102 62.3653 17.8311 62.8663 17.8311C63.4882 17.8311 64.041 17.6929 64.5247 17.4165C65.0256 17.1401 65.4057 16.7687 65.6648 16.3023C65.9412 15.8186 66.0794 15.2917 66.0794 14.7216V11.9749C66.0794 11.2321 65.8462 10.6534 65.3798 10.2388C64.9306 9.80693 64.2914 9.591 63.4622 9.591H58.6944V6.2224H63.7214C65.6562 6.2224 67.1763 6.72337 68.2819 7.72531C69.4048 8.70998 69.9662 10.0574 69.9662 11.7676V20.3705H66.3385V18.0902L67.2195 17.9348C66.5976 18.8849 65.8721 19.5845 65.0429 20.0336C64.2137 20.4655 63.229 20.6815 62.0889 20.6815Z" fill="#DC3C3C"/>
<path d="M82.7967 9.591H81.2212V6.2224H82.7967V3.00928H86.6835V6.2224H90.0003V9.591H86.6835V20.3705H82.7967V9.591Z" fill="#DC3C3C"/>
<path d="M75.2424 14.7216V11.9749C75.2424 11.232 75.4756 10.6533 75.942 10.2387C76.3912 9.80687 77.0303 9.59093 77.8595 9.59093H79.7977V6.22233H77.6004C75.6656 6.22233 74.1454 6.7233 73.0398 7.72524C71.917 8.70991 71.3555 10.0574 71.3555 11.7676V20.3704H75.2424V14.7216Z" fill="#DC3C3C"/>
</svg>
