<svg width="145" height="34" viewBox="0 0 145 34" fill="none" xmlns="http://www.w3.org/2000/svg">
<path d="M0 0.499349H11.9012C14.065 0.499349 15.9653 0.887732 17.6021 1.6645C19.2666 2.41352 20.5566 3.53706 21.472 5.03511C22.4153 6.50542 22.8869 8.29476 22.8869 10.4031C22.8869 12.4837 22.4153 14.2731 21.472 15.7711C20.5288 17.2414 19.225 18.365 17.5605 19.1417C15.9237 19.8908 14.0373 20.2653 11.9012 20.2653H6.44994V31.5007H0V0.499349ZM11.9428 14.6476C12.8305 14.6476 13.6073 14.4673 14.2731 14.1066C14.9666 13.746 15.4937 13.2466 15.8544 12.6086C16.2427 11.9705 16.4369 11.2354 16.4369 10.4031C16.4369 9.54313 16.2427 8.7941 15.8544 8.15605C15.4937 7.51799 14.9666 7.01864 14.2731 6.658C13.6073 6.29736 12.8305 6.11703 11.9428 6.11703H6.44994V14.6476H11.9428Z" fill="#1E1E2B"/>
<path d="M25.7337 0H31.9756V31.5007H25.7337V0Z" fill="#1E1E2B"/>
<path d="M41.9349 32C40.2981 32 38.8833 31.7365 37.6904 31.2094C36.4975 30.6823 35.5821 29.9332 34.944 28.9623C34.3059 27.9636 33.9869 26.7846 33.9869 25.4252C33.9869 23.4833 34.6527 21.902 35.9843 20.6814C37.3437 19.433 39.3688 18.5869 42.0597 18.143L49.009 17.0195V21.5969L43.1833 22.6372C42.2678 22.8036 41.5743 23.0949 41.1026 23.5111C40.6588 23.9272 40.4369 24.4959 40.4369 25.2172C40.4369 25.9107 40.6865 26.4517 41.1859 26.8401C41.713 27.2284 42.3788 27.4226 43.1833 27.4226C44.182 27.4226 45.0697 27.2007 45.8465 26.7568C46.651 26.313 47.2613 25.7165 47.6774 24.9675C48.1213 24.1907 48.3432 23.3446 48.3432 22.4291V18.0182C48.3432 16.8253 47.9687 15.896 47.2197 15.2302C46.4984 14.5366 45.472 14.1899 44.1404 14.1899H36.4837V8.78023H44.5565C47.6636 8.78023 50.1048 9.58474 51.8803 11.1938C53.6835 12.775 54.5851 14.9389 54.5851 17.6853V31.5007H48.7593V27.8388L50.1742 27.5891C49.1755 29.1149 48.0103 30.2384 46.6787 30.9597C45.3471 31.6532 43.7659 32 41.9349 32Z" fill="#1E1E2B"/>
<path d="M67.6517 31.9584C65.155 32.0416 62.9634 31.5284 61.077 30.4187C59.1905 29.3091 57.8867 27.7694 57.1654 25.7997L61.6595 23.4694C62.2976 24.6901 63.116 25.6194 64.1147 26.2575C65.1411 26.8955 66.2647 27.2007 67.4853 27.173C68.3453 27.1452 69.0111 26.951 69.4827 26.5904C69.9543 26.202 70.1762 25.6888 70.1485 25.0507C70.1208 24.5514 69.9127 24.1352 69.5243 23.8023C69.1359 23.4694 68.5672 23.2336 67.8182 23.0949L63.9482 22.3459C62.0895 21.902 60.6331 21.0837 59.5789 19.8908C58.5247 18.6979 57.9699 17.2831 57.9144 15.6463C57.8867 14.2592 58.2057 13.0247 58.8715 11.9428C59.565 10.8331 60.5499 9.95925 61.826 9.32119C63.1021 8.68314 64.5863 8.33637 66.2785 8.28088C68.4979 8.19766 70.4537 8.65539 72.1459 9.65409C73.8659 10.6251 75.1143 12.0399 75.891 13.8986L71.3553 16.2289C70.9669 15.3134 70.3288 14.5921 69.4411 14.065C68.5534 13.5102 67.5546 13.2466 66.445 13.2744C65.6405 13.3021 65.0163 13.4963 64.5724 13.857C64.1286 14.1899 63.9205 14.6476 63.9482 15.2302C63.976 15.7018 64.184 16.104 64.5724 16.4369C64.9885 16.7421 65.6266 17.0056 66.4866 17.2276L70.1069 17.9766C72.0211 18.4759 73.4914 19.2943 74.5178 20.4317C75.572 21.5691 76.1268 22.9562 76.1823 24.593C76.21 26.0078 75.8771 27.2562 75.1836 28.3381C74.5178 29.42 73.533 30.28 72.2291 30.9181C70.9253 31.5561 69.3995 31.9029 67.6517 31.9584Z" fill="#1E1E2B"/>
<path d="M80.229 14.1899H77.699V8.78023H80.229V3.62029H86.4709V8.78023H91.7973V14.1899H86.4709V31.5007H80.229V14.1899Z" fill="#1E1E2B"/>
<path d="M99.7078 32C98.071 32 96.6562 31.7365 95.4633 31.2094C94.2704 30.6823 93.3549 29.9332 92.7169 28.9623C92.0788 27.9636 91.7598 26.7846 91.7598 25.4252C91.7598 23.4833 92.4256 21.902 93.7572 20.6814C95.1165 19.433 97.1417 18.5869 99.8326 18.143L106.782 17.0195V21.5969L100.956 22.6372C100.041 22.8036 99.3471 23.0949 98.8755 23.5111C98.4317 23.9272 98.2097 24.4959 98.2097 25.2172C98.2097 25.9107 98.4594 26.4517 98.9587 26.8401C99.4858 27.2284 100.152 27.4226 100.956 27.4226C101.955 27.4226 102.843 27.2007 103.619 26.7568C104.424 26.313 105.034 25.7165 105.45 24.9675C105.894 24.1907 106.116 23.3446 106.116 22.4291V18.0182C106.116 16.8253 105.742 15.896 104.993 15.2302C104.271 14.5366 103.245 14.1899 101.913 14.1899H94.2565V8.78023H102.329C105.436 8.78023 107.878 9.58474 109.653 11.1938C111.456 12.775 112.358 14.9389 112.358 17.6853V31.5007H106.532V27.8388L107.947 27.5891C106.948 29.1149 105.783 30.2384 104.452 30.9597C103.12 31.6532 101.539 32 99.7078 32Z" fill="#1E1E2B"/>
<path d="M132.962 14.1899H130.432V8.78023H132.962V3.62029H139.204V8.78023H144.531V14.1899H139.204V31.5007H132.962V14.1899Z" fill="#1E1E2B"/>
<path d="M120.831 22.429V18.0181C120.831 16.8252 121.205 15.8959 121.954 15.2301C122.676 14.5365 123.702 14.1898 125.034 14.1898H128.146V8.78013H124.618C121.511 8.78013 119.069 9.58463 117.294 11.1936C115.491 12.7749 114.589 14.9388 114.589 17.6852V31.5005H120.831V22.429Z" fill="#1E1E2B"/>
<path d="M0 0.499348H11.9012C14.065 0.499348 15.9653 0.887731 17.6021 1.6645C19.2666 2.41352 20.5565 3.53706 21.472 5.0351C22.4152 6.50541 22.8868 8.29475 22.8868 10.4031C22.8868 12.4837 22.4152 14.2731 21.472 15.7711C20.5288 17.2414 19.2249 18.365 17.5604 19.1417C15.9237 19.8907 14.0373 20.2653 11.9012 20.2653H6.44993V31.5006H0V0.499348ZM11.9428 14.6476C12.8305 14.6476 13.6073 14.4673 14.2731 14.1066C14.9666 13.746 15.4937 13.2466 15.8543 12.6086C16.2427 11.9705 16.4369 11.2354 16.4369 10.4031C16.4369 9.54312 16.2427 8.79409 15.8543 8.15604C15.4937 7.51798 14.9666 7.01863 14.2731 6.65799C13.6073 6.29735 12.8305 6.11703 11.9428 6.11703H6.44993V14.6476H11.9428Z" fill="#F9F8F4"/>
<path d="M25.7337 0H31.9756V31.5006H25.7337V0Z" fill="#F9F8F4"/>
<path d="M41.9348 32C40.2981 32 38.8833 31.7364 37.6904 31.2093C36.4975 30.6822 35.582 29.9332 34.944 28.9623C34.3059 27.9636 33.9869 26.7845 33.9869 25.4252C33.9869 23.4833 34.6527 21.902 35.9843 20.6814C37.3436 19.433 39.3687 18.5869 42.0597 18.143L49.009 17.0195V21.5969L43.1832 22.6372C42.2677 22.8036 41.5742 23.0949 41.1026 23.511C40.6587 23.9272 40.4368 24.4959 40.4368 25.2171C40.4368 25.9107 40.6865 26.4516 41.1858 26.84C41.7129 27.2284 42.3787 27.4226 43.1832 27.4226C44.1819 27.4226 45.0697 27.2007 45.8464 26.7568C46.6509 26.3129 47.2612 25.7165 47.6774 24.9675C48.1212 24.1907 48.3432 23.3446 48.3432 22.4291V18.0182C48.3432 16.8253 47.9686 15.896 47.2196 15.2302C46.4983 14.5366 45.4719 14.1898 44.1403 14.1898H36.4836V8.78022H44.5564C47.6635 8.78022 50.1048 9.58473 51.8802 11.1937C53.6834 12.775 54.585 14.9389 54.585 17.6853V31.5006H48.7593V27.8387L50.1741 27.589C49.1754 29.1148 48.0103 30.2384 46.6787 30.9597C45.3471 31.6532 43.7658 32 41.9348 32Z" fill="#F9F8F4"/>
<path d="M67.6517 31.9584C65.1549 32.0416 62.9633 31.5284 61.0769 30.4187C59.1905 29.309 57.8866 27.7694 57.1653 25.7997L61.6595 23.4694C62.2975 24.69 63.1159 25.6194 64.1146 26.2574C65.141 26.8955 66.2646 27.2007 67.4852 27.1729C68.3452 27.1452 69.011 26.951 69.4826 26.5903C69.9542 26.202 70.1761 25.6887 70.1484 25.0507C70.1207 24.5513 69.9126 24.1352 69.5242 23.8023C69.1358 23.4694 68.5671 23.2336 67.8181 23.0949L63.9482 22.3459C62.0895 21.902 60.633 21.0836 59.5788 19.8907C58.5247 18.6979 57.9698 17.283 57.9144 15.6463C57.8866 14.2592 58.2056 13.0247 58.8714 11.9428C59.565 10.8331 60.5498 9.95924 61.8259 9.32118C63.102 8.68313 64.5862 8.33636 66.2785 8.28088C68.4978 8.19765 70.4536 8.65539 72.1458 9.65408C73.8658 10.625 75.1142 12.0399 75.8909 13.8986L71.3552 16.2288C70.9668 15.3134 70.3287 14.5921 69.441 14.065C68.5533 13.5102 67.5546 13.2466 66.4449 13.2744C65.6404 13.3021 65.0162 13.4963 64.5723 13.8569C64.1285 14.1898 63.9204 14.6476 63.9482 15.2302C63.9759 15.7018 64.184 16.104 64.5723 16.4369C64.9885 16.7421 65.6265 17.0056 66.4865 17.2275L70.1068 17.9766C72.021 18.4759 73.4913 19.2943 74.5177 20.4317C75.5719 21.5691 76.1267 22.9562 76.1822 24.5929C76.21 26.0078 75.8771 27.2561 75.1835 28.3381C74.5177 29.42 73.5329 30.28 72.229 30.918C70.9252 31.5561 69.3994 31.9029 67.6517 31.9584Z" fill="#F9F8F4"/>
<path d="M80.2289 14.1898H77.6989V8.78022H80.2289V3.62028H86.4708V8.78022H91.7972V14.1898H86.4708V31.5006H80.2289V14.1898Z" fill="#F9F8F4"/>
<path d="M99.7077 32C98.0709 32 96.6561 31.7364 95.4632 31.2093C94.2703 30.6822 93.3548 29.9332 92.7168 28.9623C92.0787 27.9636 91.7597 26.7845 91.7597 25.4252C91.7597 23.4833 92.4255 21.902 93.7571 20.6814C95.1164 19.433 97.1415 18.5869 99.8325 18.143L106.782 17.0195V21.5969L100.956 22.6372C100.041 22.8036 99.347 23.0949 98.8754 23.511C98.4315 23.9272 98.2096 24.4959 98.2096 25.2171C98.2096 25.9107 98.4593 26.4516 98.9586 26.84C99.4857 27.2284 100.152 27.4226 100.956 27.4226C101.955 27.4226 102.842 27.2007 103.619 26.7568C104.424 26.3129 105.034 25.7165 105.45 24.9675C105.894 24.1907 106.116 23.3446 106.116 22.4291V18.0182C106.116 16.8253 105.741 15.896 104.992 15.2302C104.271 14.5366 103.245 14.1898 101.913 14.1898H94.2564V8.78022H102.329C105.436 8.78022 107.878 9.58473 109.653 11.1937C111.456 12.775 112.358 14.9389 112.358 17.6853V31.5006H106.532V27.8387L107.947 27.589C106.948 29.1148 105.783 30.2384 104.451 30.9597C103.12 31.6532 101.539 32 99.7077 32Z" fill="#F9F8F4"/>
<path d="M132.962 14.1898H130.432V8.78022H132.962V3.62028H139.204V8.78022H144.53V14.1898H139.204V31.5006H132.962V14.1898Z" fill="#F9F8F4"/>
<path d="M120.831 22.429V18.0181C120.831 16.8252 121.205 15.8958 121.954 15.23C122.676 14.5365 123.702 14.1897 125.034 14.1897H128.146V8.78012H124.618C121.51 8.78012 119.069 9.58462 117.294 11.1936C115.491 12.7749 114.589 14.9388 114.589 17.6852V31.5005H120.831V22.429Z" fill="#F9F8F4"/>
<path d="M99.7077 32.0003C98.071 32.0003 96.6562 31.7367 95.4633 31.2096C94.2704 30.6826 93.3549 29.9335 92.7169 28.9626C92.0788 27.9639 91.7598 26.7849 91.7598 25.4255C91.7598 23.4836 92.4256 21.9023 93.7572 20.6817C95.1165 19.4333 97.1416 18.5872 99.8326 18.1433L106.782 17.0198V21.5972L100.956 22.6375C100.041 22.8039 99.3471 23.0952 98.8755 23.5113C98.4316 23.9275 98.2097 24.4962 98.2097 25.2175C98.2097 25.911 98.4594 26.452 98.9587 26.8403C99.4858 27.2287 100.152 27.4229 100.956 27.4229C101.955 27.4229 102.843 27.201 103.619 26.7571C104.424 26.3133 105.034 25.7168 105.45 24.9678C105.894 24.191 106.116 23.3449 106.116 22.4294V18.0185C106.116 16.8256 105.742 15.8963 104.993 15.2305C104.271 14.5369 103.245 14.1902 101.913 14.1902H94.2565V8.78055H102.329C105.436 8.78055 107.878 9.58505 109.653 11.1941C111.456 12.7753 112.358 14.9392 112.358 17.6856V31.5009H106.532V27.839L107.947 27.5894C106.948 29.1152 105.783 30.2387 104.452 30.96C103.12 31.6535 101.539 32.0003 99.7077 32.0003Z" fill="#DC3C3C"/>
<path d="M132.962 14.1902H130.432V8.78055H132.962V3.62061H139.204V8.78055H144.531V14.1902H139.204V31.5009H132.962V14.1902Z" fill="#DC3C3C"/>
<path d="M120.831 22.4293V18.0184C120.831 16.8255 121.205 15.8962 121.954 15.2304C122.676 14.5368 123.702 14.1901 125.034 14.1901H128.146V8.78044H124.618C121.511 8.78044 119.069 9.58495 117.294 11.194C115.491 12.7752 114.589 14.9391 114.589 17.6855V31.5008H120.831V22.4293Z" fill="#DC3C3C"/>
</svg>
