<svg aria-hidden="true" style="position: absolute; width: 0; height: 0; overflow: hidden;" version="1.1" xmlns="http://www.w3.org/2000/svg" xmlns:xlink="http://www.w3.org/1999/xlink">
<defs>
<symbol id="hamburger" viewBox="0 0 32 32">
<path d="M2.667 8c0-0.736 0.597-1.333 1.333-1.333h24c0.736 0 1.333 0.597 1.333 1.333s-0.597 1.333-1.333 1.333h-24c-0.736 0-1.333-0.597-1.333-1.333z"></path>
<path d="M2.667 16c0-0.736 0.597-1.333 1.333-1.333h24c0.736 0 1.333 0.597 1.333 1.333s-0.597 1.333-1.333 1.333h-24c-0.736 0-1.333-0.597-1.333-1.333z"></path>
<path d="M4 22.667c-0.736 0-1.333 0.597-1.333 1.333s0.597 1.333 1.333 1.333h24c0.736 0 1.333-0.597 1.333-1.333s-0.597-1.333-1.333-1.333h-24z"></path>
</symbol>
<symbol id="arrowRight" viewBox="0 0 32 32">
<path d="M19.609 7.057c-0.521-0.521-1.365-0.521-1.886 0s-0.521 1.365 0 1.886l5.724 5.724h-18.114c-0.736 0-1.333 0.597-1.333 1.333s0.597 1.333 1.333 1.333h18.114l-5.724 5.724c-0.521 0.521-0.521 1.365 0 1.886s1.365 0.521 1.886 0l8-8c0.521-0.521 0.521-1.365 0-1.886l-8-8z"></path>
</symbol>
<symbol id="zamok" viewBox="0 0 25 32">
<path d="M20.063 14.222v-6.603c0-2.021-0.803-3.959-2.232-5.388s-3.367-2.232-5.387-2.232-3.959 0.803-5.388 2.232c-1.429 1.429-2.232 3.367-2.232 5.388v6.603c-1.683 0-3.047 1.364-3.047 3.047v11.683c0 1.683 1.364 3.048 3.048 3.048h15.238c1.683 0 3.048-1.364 3.048-3.048v-11.683c0-1.683-1.365-3.048-3.048-3.048zM7.873 7.619c0-1.212 0.482-2.375 1.339-3.232s2.020-1.339 3.232-1.339c1.212 0 2.375 0.482 3.232 1.339s1.339 2.020 1.339 3.232v6.603h-9.143v-6.603z"></path>
</symbol>
<symbol id="instagram" viewBox="0 0 32 32">
<path d="M1.333 16c0-6.914 0-10.371 2.148-12.519s5.605-2.148 12.519-2.148c6.914 0 10.371 0 12.519 2.148s2.148 5.605 2.148 12.519c0 6.914 0 10.371-2.148 12.519s-5.605 2.148-12.519 2.148c-6.914 0-10.371 0-12.519-2.148s-2.148-5.605-2.148-12.519zM16 8c-4.418 0-8 3.582-8 8s3.582 8 8 8 8-3.582 8-8c0-4.418-3.582-8-8-8zM16 21c-2.756 0-5-2.244-5-5 0-2.758 2.244-5 5-5s5 2.242 5 5c0 2.756-2.244 5-5 5zM26.667 7.333c0 1.105-0.895 2-2 2s-2-0.895-2-2c0-1.105 0.895-2 2-2s2 0.895 2 2z"></path>
</symbol>
<symbol id="telegram" viewBox="0 0 32 32">
<path d="M3.35 14.332c7.874-3.387 13.125-5.62 15.752-6.699 7.501-3.080 9.060-3.615 10.076-3.633 0.223-0.004 0.723 0.051 1.047 0.31 0.273 0.219 0.349 0.515 0.384 0.722s0.081 0.68 0.045 1.050c-0.406 4.217-2.165 14.449-3.060 19.172-0.379 1.998-1.124 2.668-1.846 2.734-1.569 0.143-2.76-1.023-4.279-2.007-2.377-1.538-3.72-2.496-6.028-3.997-2.667-1.735-0.938-2.689 0.582-4.247 0.398-0.408 7.309-6.614 7.443-7.177 0.017-0.070 0.032-0.333-0.126-0.471s-0.391-0.091-0.559-0.053c-0.238 0.053-4.036 2.532-11.393 7.435-1.078 0.731-2.054 1.087-2.929 1.068-0.964-0.021-2.82-0.538-4.199-0.981-1.692-0.543-3.036-0.83-2.919-1.752 0.061-0.48 0.731-0.971 2.009-1.473z"></path>
</symbol>
<symbol id="youtube" viewBox="0 0 32 32">
<path d="M28.502 5.469c-2.494-0.669-12.502-0.669-12.502-0.669s-10.007 0-12.502 0.669c-1.378 0.369-2.46 1.451-2.829 2.829-0.669 2.495-0.669 7.702-0.669 7.702s0 5.208 0.669 7.702c0.369 1.378 1.451 2.46 2.829 2.829 2.495 0.669 12.502 0.669 12.502 0.669s10.007 0 12.502-0.669c1.378-0.369 2.46-1.451 2.829-2.829 0.669-2.494 0.669-7.702 0.669-7.702s-0.003-5.208-0.669-7.702c-0.369-1.378-1.451-2.46-2.829-2.829zM21.11 16l-8.313 4.799v-9.599l8.313 4.8z"></path>
</symbol>
<symbol id="facebook" viewBox="0 0 32 32">
<path d="M32 16c0-8.837-7.163-16-16-16s-16 7.163-16 16c0 7.986 5.851 14.605 13.5 15.806v-11.181h-4.063v-4.625h4.063v-3.525c0-4.010 2.389-6.225 6.043-6.225 1.75 0 3.582 0.313 3.582 0.313v3.938h-2.017c-1.988 0-2.608 1.233-2.608 2.5v3h4.438l-0.709 4.625h-3.728v11.181c7.649-1.2 13.5-7.82 13.5-15.806z"></path>

</symbol>
<symbol id="angleArrow" viewBox="0 0 30 32">
<path d="M19.711 5.073c-0.49-0.49-1.285-0.49-1.775 0s-0.49 1.285 0 1.775l4.132 4.132h-12.029c-3.465 0-6.274 2.809-6.274 6.275v8.784c0 0.693 0.562 1.255 1.255 1.255s1.255-0.562 1.255-1.255v-8.784c0-2.079 1.686-3.765 3.765-3.765h12.029l-4.132 4.132c-0.49 0.49-0.49 1.285 0 1.775s1.285 0.49 1.775 0l6.274-6.274c0.49-0.49 0.49-1.285 0-1.775l-6.274-6.275z"></path>
</symbol>
<symbol id="arrowRight" viewBox="0 0 32 32">
<path d="M19.609 7.057c-0.521-0.521-1.365-0.521-1.886 0s-0.521 1.365 0 1.886l5.724 5.724h-18.114c-0.736 0-1.333 0.597-1.333 1.333s0.597 1.333 1.333 1.333h18.114l-5.724 5.724c-0.521 0.521-0.521 1.365 0 1.886s1.365 0.521 1.886 0l8-8c0.521-0.521 0.521-1.365 0-1.886l-8-8z"></path>
</symbol>
<symbol id="minus" viewBox="0 0 32 32">
<path d="M5.333 16c0-0.736 0.597-1.333 1.333-1.333h18.667c0.736 0 1.333 0.597 1.333 1.333s-0.597 1.333-1.333 1.333h-18.667c-0.736 0-1.333-0.597-1.333-1.333z"></path>
</symbol>
<symbol id="plus" viewBox="0 0 32 32">
<path d="M17.333 6.667c0-0.736-0.597-1.333-1.333-1.333s-1.333 0.597-1.333 1.333v8h-8c-0.736 0-1.333 0.597-1.333 1.333s0.597 1.333 1.333 1.333h8v8c0 0.736 0.597 1.333 1.333 1.333s1.333-0.597 1.333-1.333v-8h8c0.736 0 1.333-0.597 1.333-1.333s-0.597-1.333-1.333-1.333h-8v-8z"></path>
</symbol>
<symbol id="chevronUp" viewBox="0 0 20 20">
<path d="M15.484 12.452c-0.436 0.446-1.043 0.481-1.576 0l-3.908-3.747-3.908 3.747c-0.533 0.481-1.141 0.446-1.574 0-0.436-0.445-0.408-1.197 0-1.615 0.406-0.418 4.695-4.502 4.695-4.502 0.217-0.223 0.502-0.335 0.787-0.335s0.57 0.112 0.789 0.335c0 0 4.287 4.084 4.695 4.502s0.436 1.17 0 1.615z"></path>
</symbol>
<symbol id="cross" viewBox="0 0 33 32">
<path d="M26.274 8.943c0.521-0.521 0.521-1.365 0-1.886s-1.365-0.521-1.886 0l-7.057 7.057-7.057-7.057c-0.521-0.521-1.365-0.521-1.886 0s-0.521 1.365 0 1.886l7.057 7.057-7.057 7.057c-0.521 0.521-0.521 1.365 0 1.886s1.365 0.521 1.886 0l7.057-7.057 7.057 7.057c0.521 0.521 1.365 0.521 1.886 0s0.521-1.365 0-1.886l-7.057-7.057 7.057-7.057z"></path>
</symbol>
<symbol id="chevronBot" viewBox="0 0 30 32">
<path d="M6.643 12.603c0.49-0.49 1.285-0.49 1.775 0l6.642 6.642 6.642-6.642c0.49-0.49 1.285-0.49 1.775 0s0.49 1.285 0 1.775l-7.529 7.529c-0.49 0.49-1.285 0.49-1.775 0l-7.529-7.529c-0.49-0.49-0.49-1.285 0-1.775z"></path>
</symbol>
</defs>
</svg>
