<svg width="7" height="9" viewBox="0 0 7 9" fill="none" xmlns="http://www.w3.org/2000/svg">
<path d="M5.64275 4V2.14286C5.64275 1.57454 5.41698 1.02949 5.01512 0.627628C4.61325 0.225765 4.06821 0 3.49989 0C2.93157 0 2.38652 0.225765 1.98466 0.627628C1.5828 1.02949 1.35703 1.57454 1.35703 2.14286V4C0.883706 4 0.5 4.38371 0.5 4.85703V8.14286C0.5 8.61624 0.883756 9 1.35714 9H5.64286C6.11624 9 6.5 8.61624 6.5 8.14286V4.85714C6.5 4.38376 6.11613 4 5.64275 4ZM2.21417 2.14286C2.21417 1.80186 2.34963 1.47484 2.59075 1.23372C2.83187 0.992602 3.1589 0.857143 3.49989 0.857143C3.84088 0.857143 4.16791 0.992602 4.40903 1.23372C4.65014 1.47484 4.7856 1.80186 4.7856 2.14286V4H2.21417V2.14286Z" fill="#8A8990"/>
</svg>
