<svg width="82" height="48" viewBox="0 0 82 48" fill="none" xmlns="http://www.w3.org/2000/svg">
<g opacity="0.8">
<path d="M42.0406 34.0222C41.066 35.846 39.8206 37.5073 38.3587 38.97C30.0923 47.2405 16.6819 47.2405 8.41549 38.97C0.149086 30.6995 0.149086 17.2826 8.41549 9.03024C16.7 0.759791 30.1103 0.759791 38.3767 9.0483C40.3621 11.0347 41.9324 13.4002 42.9972 16.0005L44.6758 15.3143C39.8748 3.55874 26.4644 -2.09333 14.7146 2.71003C2.96472 7.51339 -2.6846 20.9303 2.11642 32.6859C6.91743 44.4415 20.3278 50.0936 32.0776 45.2902C37.0411 43.2677 41.1382 39.5659 43.6651 34.8348L42.0406 34.0222Z" fill="#F59D08"/>
<path d="M30.7958 27.5394L28.8285 28.677C29.5324 30.0856 30.9943 31.169 33.2504 31.169C35.5607 31.169 37.2754 29.9772 37.2754 27.7922C37.2754 25.7697 36.1022 24.8669 34.0446 23.982L33.4309 23.7292C32.3841 23.2778 31.9329 22.9708 31.9329 22.2485C31.9329 21.6526 32.3841 21.2011 33.088 21.2011C33.7739 21.2011 34.2251 21.5081 34.6402 22.2485L36.5353 21.0386C35.7412 19.6301 34.6222 19.0884 33.088 19.0884C30.9221 19.0884 29.5324 20.4788 29.5324 22.3027C29.5324 24.289 30.6875 25.228 32.4382 25.9684L33.0519 26.2212C34.1709 26.7087 34.8207 26.9977 34.8207 27.8283C34.8207 28.5145 34.189 29.0201 33.1783 29.0201C31.987 29.0201 31.3192 28.3881 30.7958 27.5394Z" fill="black"/>
<path d="M24.0455 19.2147H21.627V31.0064H24.0455V19.2147Z" fill="black"/>
<path fill-rule="evenodd" clip-rule="evenodd" d="M46.4081 19.1065H46.6247L52.0214 31.0065H49.4765L48.9169 29.6702H44.134L43.5745 31.0065H41.2281L46.4081 19.1065ZM48.0326 27.6478L47.1843 25.6072C46.8413 24.7766 46.4803 23.4945 46.4803 23.4945C46.4803 23.4945 46.1374 24.7766 45.7945 25.6072L44.9462 27.6478H48.0326Z" fill="black"/>
<path fill-rule="evenodd" clip-rule="evenodd" d="M60.1433 19.2147H56.8945V31.0064H59.3131V28.3158H60.1433C63.4283 28.3158 65.4136 26.6003 65.4136 23.7653C65.4136 20.9302 63.4283 19.2147 60.1433 19.2147ZM62.9229 23.7833C62.9229 25.3905 62.0565 26.185 60.0892 26.185V26.2031H59.3311V21.3636H60.0892C62.0204 21.3636 62.9229 22.1581 62.9229 23.7833Z" fill="black"/>
<path d="M69.583 28.677L71.5503 27.5394C72.0737 28.3881 72.7416 29.0201 73.9328 29.0201C74.9435 29.0201 75.5752 28.5145 75.5752 27.8283C75.5752 26.9977 74.9255 26.7087 73.8064 26.2212L73.1928 25.9684C71.442 25.228 70.2869 24.289 70.2869 22.3027C70.2869 20.4788 71.6767 19.0884 73.8425 19.0884C75.3767 19.0884 76.4957 19.6301 77.2899 21.0386L75.3947 22.2485C74.9796 21.5081 74.5284 21.2011 73.8425 21.2011C73.1386 21.2011 72.6874 21.6526 72.6874 22.2485C72.6874 22.9708 73.1386 23.2778 74.1855 23.7292L74.7991 23.982C76.8567 24.8669 78.0299 25.7697 78.0299 27.7922C78.0299 29.9772 76.3152 31.169 74.005 31.169C71.7489 31.169 70.2869 30.0856 69.583 28.677Z" fill="black"/>
<path fill-rule="evenodd" clip-rule="evenodd" d="M80.3401 21.4178H80.5928L80.2499 20.9664C80.4845 20.858 80.5928 20.6774 80.5928 20.4427C80.5928 20.0996 80.3943 19.8287 79.9069 19.8287H79.4918V21.4359H79.7084V21.0386H79.9069C79.934 21.0386 79.9566 21.0341 79.9791 21.0296C80.0017 21.0251 80.0243 21.0205 80.0513 21.0205L80.3401 21.4178ZM80.3762 20.4427C80.3762 20.6955 80.2499 20.858 79.8889 20.858V20.8761H79.7084V20.0093H79.8889C80.2679 20.0093 80.3762 20.1899 80.3762 20.4427Z" fill="black"/>
<path fill-rule="evenodd" clip-rule="evenodd" d="M79.9791 19.2509C79.203 19.2509 78.5713 19.8468 78.5713 20.6413C78.5713 21.4359 79.203 22.0137 79.9791 22.0318C80.7552 22.0318 81.405 21.4359 81.405 20.6413C81.405 19.8468 80.7552 19.2509 79.9791 19.2509ZM79.9611 19.4315C80.665 19.4315 81.1704 19.919 81.1704 20.6413C81.1704 21.3456 80.665 21.8331 79.9611 21.8331C79.2752 21.8331 78.7879 21.3456 78.7879 20.6413C78.7879 19.919 79.2752 19.4315 79.9611 19.4315Z" fill="black"/>
</g>
</svg>
