<svg width="107" height="16" viewBox="0 0 107 16" fill="none" xmlns="http://www.w3.org/2000/svg">
<path d="M3.83873 7.8176H2.42287C2.1574 7.8176 1.94502 7.59865 1.94502 7.32497V1.97902C1.94502 1.70533 2.1574 1.48638 2.42287 1.48638H3.55555C5.85632 1.48638 7.80312 2.28919 7.80312 4.67936C7.80312 7.25198 6.01561 7.8176 3.83873 7.8176ZM4.15729 0.884281H0.883125C0.617652 0.884281 0.405273 1.10323 0.405273 1.37691V14.8786C0.405273 15.3165 0.741539 15.6632 1.1663 15.6632C1.59105 15.6632 1.92732 15.3165 1.92732 14.8786V9.02181C1.92732 8.89409 1.98041 8.76637 2.0689 8.67514C2.1574 8.58392 2.28128 8.52918 2.40517 8.52918H5.37847C8.0686 8.52918 9.41366 6.85058 9.41366 4.78883C9.43136 2.03375 7.11289 0.884281 4.15729 0.884281ZM13.8736 8.00006C13.8736 12.7074 16.546 15.0611 18.9884 15.0611C21.4307 15.0611 24.1032 12.7074 24.1032 8.00006C24.1032 3.2927 21.4307 0.939016 18.9884 0.939016C16.546 0.939016 13.8736 3.2927 13.8736 8.00006ZM25.8907 8.00006C25.8907 12.3243 22.882 15.6632 18.9884 15.6632C15.0948 15.6632 12.0861 12.3243 12.0861 8.00006C12.0861 3.67585 15.0948 0.336914 18.9884 0.336914C22.882 0.336914 25.8907 3.67585 25.8907 8.00006ZM38.7927 14.4043H32.793C32.6514 14.4043 32.5275 14.3495 32.4213 14.2583C32.3328 14.1671 32.2797 14.0393 32.2797 13.9116V1.13972C32.2797 0.701824 31.9258 0.355161 31.4656 0.355161C31.0232 0.355161 30.6515 0.701824 30.6515 1.13972V14.6232C30.6515 14.8969 30.8816 15.1158 31.1648 15.1158H38.775C38.9874 15.1158 39.1466 14.9516 39.1466 14.7509C39.1643 14.5502 39.0051 14.4043 38.7927 14.4043ZM50.1903 0.391649C50.0487 0.300421 49.8718 0.336916 49.7833 0.464635L45.518 6.26673C45.4295 6.35795 45.2879 6.43093 45.164 6.43093C45.0048 6.43093 44.8632 6.35795 44.757 6.23023L40.474 0.628844C40.2439 0.31867 39.7838 0.245684 39.4652 0.482876C39.1466 0.720069 39.0759 1.15797 39.3059 1.46814L43.8721 7.59865C43.9075 7.65339 43.9252 7.72637 43.9429 7.79935V14.3495C43.9429 14.7874 44.2968 15.1341 44.7393 15.1341C45.1817 15.1341 45.5357 14.7874 45.5357 14.3495V7.68988C45.5357 7.58041 45.5711 7.48918 45.6419 7.41619L50.2965 0.8113C50.3496 0.665336 50.3142 0.482876 50.1903 0.391649ZM62.6853 0.884281H51.7301C51.5354 0.884281 51.3584 1.04849 51.3584 1.24919C51.3584 1.44989 51.5177 1.6141 51.7301 1.6141H55.6237C55.9069 1.6141 56.1369 1.83305 56.1369 2.10674V14.8786C56.1369 15.3165 56.4909 15.6632 56.9333 15.6632C57.3758 15.6632 57.7298 15.3165 57.7298 14.8786V2.10674C57.7298 1.83305 57.9598 1.6141 58.243 1.6141H62.6853C62.8799 1.6141 63.0569 1.44989 63.0569 1.24919C63.0569 1.04849 62.8976 0.884281 62.6853 0.884281ZM75.9589 14.4043C75.9589 14.4043 70.1362 14.4043 68.3664 14.4043C68.0832 14.4043 67.8531 14.1853 67.8531 13.9116V8.69339C67.8531 8.4197 68.0832 8.20076 68.3664 8.20076H75.3218C75.5342 8.20076 75.6934 8.03655 75.6934 7.85409C75.6934 7.65339 75.5342 7.50742 75.3218 7.50742H68.3664C68.0832 7.50742 67.8531 7.28848 67.8531 7.0148V2.052C67.8531 1.77831 68.0832 1.55937 68.3664 1.55937H75.6758C75.8704 1.55937 76.0474 1.39516 76.0474 1.2127C76.0474 1.012 75.8881 0.866035 75.6758 0.866035H66.7382C66.455 0.866035 66.2249 1.08498 66.2249 1.35867V14.6232C66.2249 14.8969 66.455 15.1158 66.7382 15.1158H75.9412C76.1536 15.1158 76.3129 14.9516 76.3129 14.7692C76.3306 14.5685 76.1713 14.4043 75.9589 14.4043ZM90.9139 11.8134C90.6661 11.7039 90.3653 11.8134 90.2591 12.0506C89.3742 14.0576 87.8167 14.9334 85.7106 14.9334C83.2683 14.9334 80.2773 12.9446 80.2773 7.98181C80.2773 3.0555 82.9497 0.920775 85.7106 0.920775C87.8698 0.920775 89.5334 2.12498 90.1883 3.87655C90.2945 4.0955 90.5599 4.20498 90.79 4.0955C91.0201 3.98603 91.1086 3.73059 91.0024 3.51164C89.9936 1.37691 88.0645 0.336914 85.7106 0.336914C81.5162 0.336914 78.4544 3.71235 78.4544 8.00006C78.4544 12.2878 81.5162 15.6632 85.7106 15.6632C88.0645 15.6632 90.206 14.5502 91.1617 12.4702C91.2679 12.2148 91.1617 11.9411 90.9139 11.8134ZM105.798 0.336914C105.356 0.336914 105.002 0.683578 105.002 1.12147V6.75936C105.002 7.03304 104.772 7.25199 104.506 7.25199H96.9844C96.7012 7.25199 96.4888 7.03304 96.4888 6.75936V1.12147C96.4888 0.683578 96.1349 0.336914 95.6924 0.336914C95.25 0.336914 94.896 0.683578 94.896 1.12147V14.3495C94.896 14.7874 95.25 15.1341 95.6924 15.1341C96.1349 15.1341 96.4888 14.7874 96.4888 14.3495V8.45619C96.4888 8.18251 96.7189 7.96356 96.9844 7.96356H104.506C104.789 7.96356 105.002 8.18251 105.002 8.45619V14.3495C105.002 14.7874 105.356 15.1341 105.798 15.1341C106.241 15.1341 106.595 14.7874 106.595 14.3495V1.12147C106.595 0.683578 106.241 0.336914 105.798 0.336914Z" fill="#005D83"/>
</svg>
